<?xml version="1.0" encoding="utf-8"?>
<!-- Generator: Adobe Illustrator 16.0.0, SVG Export Plug-In . SVG Version: 6.00 Build 0)  -->
<!DOCTYPE svg PUBLIC "-//W3C//DTD SVG 1.1//EN" "http://www.w3.org/Graphics/SVG/1.1/DTD/svg11.dtd">
<svg version="1.1" id="Calque_1" xmlns="http://www.w3.org/2000/svg" xmlns:xlink="http://www.w3.org/1999/xlink" x="0px" y="0px"
	 width="500px" height="400px" viewBox="0 0 500 400" enable-background="new 0 0 500 400" xml:space="preserve">
<polyline fill="#80B628" points="116.671,115.821 130.157,120.538 130.19,104.29 116.67,99.226 "/>
<polyline fill="#80B628" points="118.61,82.992 128.228,86.356 128.251,74.769 118.609,71.157 "/>
<polyline fill="#80B628" points="166.65,143.56 190.571,151.925 190.627,123.109 166.649,114.127 "/>
<polyline fill="#80B628" points="139.712,125.491 156.789,131.463 156.83,110.892 139.712,104.48 "/>
<polyline fill="#80B628" points="166.372,104.569 183.448,110.541 183.489,89.97 166.371,83.558 "/>
<polyline fill="#80B628" points="141.511,93.679 154.998,98.396 155.03,82.148 141.511,77.084 "/>
<polyline fill="#F8EFCD" points="143.45,64.239 153.068,67.603 153.091,56.017 143.449,52.405 "/>
<polyline fill="#F8EFCD" points="168.171,75.294 181.657,80.011 181.69,63.764 168.17,58.699 "/>
<path fill="#D9B894" stroke="#12100B" stroke-miterlimit="10" d="M309.522,117.283"/>
<path fill="#D9B894" d="M299.192,108.444"/>
<path fill="#075775" stroke="#0F3A4C" stroke-width="0.5" stroke-miterlimit="10" d="M334.729,125.824"/>
<path fill="#F8EFCD" d="M347.555,80.353l-22.91-15.143c0,0-82.983,36.945-76.264,48.794c13.245,0,13.245,0,13.245,0"/>
<path fill="#F8EFCD" d="M196.212,96.374l-0.587-25.602c0,0,59.125,27.694,51.981,43.355c-13.245,0-13.245,0-13.245,0"/>
<path fill="#80B628" d="M263.673,110.377l90.774-34c0,0,0.001,156.086,0.001,154.667s-90.776,36.419-90.776,39"/>
<polygon fill="#3D6028" points="306.09,94.584 306.237,138.459 296.886,135.959 288.261,141.418 288.261,101.167 "/>
<polyline fill="#47722D" points="274.37,90.517 288.779,101.167 306.09,94.808 288.653,82.688 "/>
<linearGradient id="SVGID_1_" gradientUnits="userSpaceOnUse" x1="72.0854" y1="217.0723" x2="72.0854" y2="199.7378" gradientTransform="matrix(1 0 0 1 -5.5947 17.3794)">
	<stop  offset="0" style="stop-color:#2D2A27"/>
	<stop  offset="0.1107" style="stop-color:#322F2C"/>
	<stop  offset="0.2922" style="stop-color:#413D3B"/>
	<stop  offset="0.5221" style="stop-color:#5B5654"/>
	<stop  offset="0.7885" style="stop-color:#837E7C"/>
	<stop  offset="1" style="stop-color:#AAA7A5"/>
</linearGradient>
<ellipse fill="url(#SVGID_1_)" cx="66.49" cy="225.784" rx="19.906" ry="8.667"/>
<linearGradient id="SVGID_2_" gradientUnits="userSpaceOnUse" x1="131.0649" y1="290.1162" x2="131.0649" y2="258.7832" gradientTransform="matrix(1 0 0 1 -5.5947 17.3794)">
	<stop  offset="0" style="stop-color:#2D2A27"/>
	<stop  offset="0.1107" style="stop-color:#322F2C"/>
	<stop  offset="0.2922" style="stop-color:#413D3B"/>
	<stop  offset="0.5221" style="stop-color:#5B5654"/>
	<stop  offset="0.7885" style="stop-color:#837E7C"/>
	<stop  offset="1" style="stop-color:#AAA7A5"/>
</linearGradient>
<ellipse fill="url(#SVGID_2_)" cx="125.47" cy="291.829" rx="35.453" ry="15.666"/>
<linearGradient id="SVGID_3_" gradientUnits="userSpaceOnUse" x1="267.4014" y1="328.7393" x2="267.4014" y2="290.7393" gradientTransform="matrix(1 0 0 1 -5.5947 17.3794)">
	<stop  offset="0" style="stop-color:#2D2A27"/>
	<stop  offset="0.1107" style="stop-color:#322F2C"/>
	<stop  offset="0.2922" style="stop-color:#413D3B"/>
	<stop  offset="0.5221" style="stop-color:#5B5654"/>
	<stop  offset="0.7885" style="stop-color:#837E7C"/>
	<stop  offset="1" style="stop-color:#AAA7A5"/>
</linearGradient>
<ellipse fill="url(#SVGID_3_)" cx="261.807" cy="327.117" rx="40.907" ry="19.001"/>
<linearGradient id="SVGID_4_" gradientUnits="userSpaceOnUse" x1="400.6162" y1="285.751" x2="400.6162" y2="256.417" gradientTransform="matrix(1 0 0 1 -5.5947 17.3794)">
	<stop  offset="0" style="stop-color:#2D2A27"/>
	<stop  offset="0.1107" style="stop-color:#322F2C"/>
	<stop  offset="0.2922" style="stop-color:#413D3B"/>
	<stop  offset="0.5221" style="stop-color:#5B5654"/>
	<stop  offset="0.7885" style="stop-color:#837E7C"/>
	<stop  offset="1" style="stop-color:#AAA7A5"/>
</linearGradient>
<ellipse fill="url(#SVGID_4_)" cx="395.021" cy="288.463" rx="29.608" ry="14.667"/>
<linearGradient id="SVGID_5_" gradientUnits="userSpaceOnUse" x1="434.8613" y1="210.7383" x2="434.8613" y2="188.7378" gradientTransform="matrix(1 0 0 1 -5.5947 17.3794)">
	<stop  offset="0" style="stop-color:#2D2A27"/>
	<stop  offset="0.1107" style="stop-color:#322F2C"/>
	<stop  offset="0.2922" style="stop-color:#413D3B"/>
	<stop  offset="0.5221" style="stop-color:#5B5654"/>
	<stop  offset="0.7885" style="stop-color:#837E7C"/>
	<stop  offset="1" style="stop-color:#AAA7A5"/>
</linearGradient>
<ellipse fill="url(#SVGID_5_)" cx="429.267" cy="217.117" rx="23.375" ry="11"/>
<path fill="#80B628" d="M263.942,151.5c0,0-6.255,2.375-15.062,2.375c-8.808,0-15.281-2.375-15.281-2.375v-4.75
	c0,0,6.757,2.375,15.063,2.375c8.305,0,15.28-2.375,15.28-2.375V151.5z"/>
<path fill="#80B628" d="M263.942,161.75c0,0-6.255,2.375-15.062,2.375c-8.808,0-15.281-2.375-15.281-2.375V157
	c0,0,6.757,2.375,15.063,2.375c8.305,0,15.28-2.375,15.28-2.375V161.75z"/>
<path fill="#80B628" d="M263.942,172.5c0,0-6.255,2.375-15.062,2.375c-8.808,0-15.281-2.375-15.281-2.375v-4.75
	c0,0,6.757,2.375,15.063,2.375c8.305,0,15.28-2.375,15.28-2.375V172.5z"/>
<path fill="#3D6028" d="M263.942,270.272c0,0-6.255,2.375-15.062,2.375c-8.808,0-15.281-2.375-15.281-2.375v-4.75
	c0,0,6.757,2.375,15.063,2.375c8.305,0,15.28-2.375,15.28-2.375V270.272z"/>
<path fill="#80B628" d="M233.599,110.377l-43.012-16.11l-0.113,57.402l-47.649-16.664c0,44.113-0.001,96.866-0.001,96.039
	c0-1.419,90.776,36.419,90.776,39"/>
<path fill="#3D6028" stroke="#3D6028" stroke-miterlimit="10" d="M262.813,110.669c-2.179,0.669-7.339,2-13.933,2
	c-6.593,0-11.878-1.331-14.119-2h-0.601v158.999h29.219l-0.002-158.999H262.813z"/>
<path fill="#80B628" d="M263.942,214.492c0,0-6.255,2.375-15.062,2.375c-8.808,0-15.281-2.375-15.281-2.375v-4.75
	c0,0,6.757,2.375,15.063,2.375c8.305,0,15.28-2.375,15.28-2.375V214.492z"/>
<path fill="#80B628" d="M263.942,224.242c0,0-6.255,2.375-15.062,2.375c-8.808,0-15.281-2.375-15.281-2.375v-4.75
	c0,0,6.757,2.375,15.063,2.375c8.305,0,15.28-2.375,15.28-2.375V224.242z"/>
<path fill="#80B628" d="M263.942,233.826c0,0-6.255,2.375-15.062,2.375c-8.808,0-15.281-2.375-15.281-2.375v-4.75
	c0,0,6.757,2.375,15.063,2.375c8.305,0,15.28-2.375,15.28-2.375V233.826z"/>
<path fill="#80B628" d="M263.942,135.29c0,0-6.255,2.375-15.062,2.375c-8.808,0-15.281-2.375-15.281-2.375v-4.75
	c0,0,6.757,2.375,15.063,2.375c8.305,0,15.28-2.375,15.28-2.375V135.29z"/>
<path fill="#80B628" d="M263.942,145.04c0,0-6.255,2.375-15.062,2.375c-8.808,0-15.281-2.375-15.281-2.375v-4.75
	c0,0,6.757,2.375,15.063,2.375c8.305,0,15.28-2.375,15.28-2.375V145.04z"/>
<path fill="#80B628" d="M263.942,154.625c0,0-6.255,2.375-15.062,2.375c-8.808,0-15.281-2.375-15.281-2.375v-4.75
	c0,0,6.757,2.375,15.063,2.375c8.305,0,15.28-2.375,15.28-2.375V154.625z"/>
</svg>
