<?xml version="1.0" encoding="utf-8"?>
<!-- Generator: Adobe Illustrator 16.0.0, SVG Export Plug-In . SVG Version: 6.00 Build 0)  -->
<!DOCTYPE svg PUBLIC "-//W3C//DTD SVG 1.1//EN" "http://www.w3.org/Graphics/SVG/1.1/DTD/svg11.dtd">
<svg version="1.1" id="Calque_1" xmlns="http://www.w3.org/2000/svg" xmlns:xlink="http://www.w3.org/1999/xlink" x="0px" y="0px"
	 width="500px" height="500px" viewBox="0 0 500 500" enable-background="new 0 0 500 500" xml:space="preserve">
<polyline fill="#80B628" points="118.671,121.821 132.157,126.538 132.19,110.29 118.67,105.226 "/>
<polyline fill="#80B628" points="120.61,88.992 130.228,92.356 130.251,80.769 120.609,77.157 "/>
<polyline fill="#80B628" points="168.65,149.56 192.571,157.925 192.627,129.109 168.649,120.127 "/>
<polyline fill="#80B628" points="141.712,131.491 158.789,137.463 158.83,116.892 141.712,110.48 "/>
<polyline fill="#80B628" points="168.372,110.569 185.448,116.541 185.489,95.97 168.371,89.558 "/>
<polyline fill="#80B628" points="143.511,99.679 156.998,104.396 157.03,88.148 143.511,83.084 "/>
<polyline fill="#F8EFCD" points="121.774,60.591 129.069,63.143 129.086,54.354 121.773,51.614 "/>
<polyline fill="#F8EFCD" points="145.45,70.239 155.068,73.603 155.091,62.017 145.449,58.405 "/>
<polyline fill="#F8EFCD" points="170.171,81.294 183.657,86.011 183.69,69.764 170.17,64.699 "/>
<path fill="#D9B894" stroke="#12100B" stroke-miterlimit="10" d="M311.522,123.283"/>
<path fill="#D9B894" d="M301.192,114.444"/>
<path fill="#075775" stroke="#0F3A4C" stroke-width="0.5" stroke-miterlimit="10" d="M336.729,131.824"/>
<path fill="#F8EFCD" d="M349.555,86.353l-22.91-15.143c0,0-82.983,36.945-76.264,48.794c13.245,0,13.245,0,13.245,0"/>
<path fill="#F8EFCD" d="M198.212,102.374l-0.587-25.602c0,0,59.125,27.694,51.981,43.355c-13.245,0-13.245,0-13.245,0"/>
<path fill="#80B628" d="M265.673,116.377l90.774-34c0,0,0.001,156.086,0.001,154.667s-90.776,36.419-90.776,39"/>
<polygon fill="#3D6028" points="308.09,100.584 308.237,144.459 298.886,141.959 290.261,147.418 290.261,107.167 "/>
<polyline fill="#47722D" points="276.37,96.517 290.779,107.167 308.09,100.808 290.653,88.688 "/>
<linearGradient id="SVGID_1_" gradientUnits="userSpaceOnUse" x1="74.0854" y1="223.0718" x2="74.0854" y2="205.7378" gradientTransform="matrix(1 0 0 1 -5.5947 17.3794)">
	<stop  offset="0" style="stop-color:#2D2A27"/>
	<stop  offset="0.1107" style="stop-color:#322F2C"/>
	<stop  offset="0.2922" style="stop-color:#413D3B"/>
	<stop  offset="0.5221" style="stop-color:#5B5654"/>
	<stop  offset="0.7885" style="stop-color:#837E7C"/>
	<stop  offset="1" style="stop-color:#AAA7A5"/>
</linearGradient>
<ellipse fill="url(#SVGID_1_)" cx="68.49" cy="231.784" rx="19.906" ry="8.667"/>
<linearGradient id="SVGID_2_" gradientUnits="userSpaceOnUse" x1="133.0649" y1="296.1162" x2="133.0649" y2="264.7832" gradientTransform="matrix(1 0 0 1 -5.5947 17.3794)">
	<stop  offset="0" style="stop-color:#2D2A27"/>
	<stop  offset="0.1107" style="stop-color:#322F2C"/>
	<stop  offset="0.2922" style="stop-color:#413D3B"/>
	<stop  offset="0.5221" style="stop-color:#5B5654"/>
	<stop  offset="0.7885" style="stop-color:#837E7C"/>
	<stop  offset="1" style="stop-color:#AAA7A5"/>
</linearGradient>
<ellipse fill="url(#SVGID_2_)" cx="127.47" cy="297.829" rx="35.453" ry="15.666"/>
<linearGradient id="SVGID_3_" gradientUnits="userSpaceOnUse" x1="269.4014" y1="334.7393" x2="269.4014" y2="296.7393" gradientTransform="matrix(1 0 0 1 -5.5947 17.3794)">
	<stop  offset="0" style="stop-color:#2D2A27"/>
	<stop  offset="0.1107" style="stop-color:#322F2C"/>
	<stop  offset="0.2922" style="stop-color:#413D3B"/>
	<stop  offset="0.5221" style="stop-color:#5B5654"/>
	<stop  offset="0.7885" style="stop-color:#837E7C"/>
	<stop  offset="1" style="stop-color:#AAA7A5"/>
</linearGradient>
<ellipse fill="url(#SVGID_3_)" cx="263.807" cy="333.117" rx="40.907" ry="19.001"/>
<linearGradient id="SVGID_4_" gradientUnits="userSpaceOnUse" x1="402.6162" y1="291.751" x2="402.6162" y2="262.417" gradientTransform="matrix(1 0 0 1 -5.5947 17.3794)">
	<stop  offset="0" style="stop-color:#2D2A27"/>
	<stop  offset="0.1107" style="stop-color:#322F2C"/>
	<stop  offset="0.2922" style="stop-color:#413D3B"/>
	<stop  offset="0.5221" style="stop-color:#5B5654"/>
	<stop  offset="0.7885" style="stop-color:#837E7C"/>
	<stop  offset="1" style="stop-color:#AAA7A5"/>
</linearGradient>
<ellipse fill="url(#SVGID_4_)" cx="397.021" cy="294.463" rx="29.608" ry="14.667"/>
<linearGradient id="SVGID_5_" gradientUnits="userSpaceOnUse" x1="436.8613" y1="216.7378" x2="436.8613" y2="194.7373" gradientTransform="matrix(1 0 0 1 -5.5947 17.3794)">
	<stop  offset="0" style="stop-color:#2D2A27"/>
	<stop  offset="0.1107" style="stop-color:#322F2C"/>
	<stop  offset="0.2922" style="stop-color:#413D3B"/>
	<stop  offset="0.5221" style="stop-color:#5B5654"/>
	<stop  offset="0.7885" style="stop-color:#837E7C"/>
	<stop  offset="1" style="stop-color:#AAA7A5"/>
</linearGradient>
<ellipse fill="url(#SVGID_5_)" cx="431.267" cy="223.117" rx="23.375" ry="11"/>
<path fill="#80B628" d="M265.942,157.5c0,0-6.255,2.375-15.062,2.375c-8.808,0-15.281-2.375-15.281-2.375v-4.75
	c0,0,6.757,2.375,15.063,2.375c8.305,0,15.28-2.375,15.28-2.375V157.5z"/>
<path fill="#80B628" d="M265.942,167.75c0,0-6.255,2.375-15.062,2.375c-8.808,0-15.281-2.375-15.281-2.375V163
	c0,0,6.757,2.375,15.063,2.375c8.305,0,15.28-2.375,15.28-2.375V167.75z"/>
<path fill="#80B628" d="M265.942,178.5c0,0-6.255,2.375-15.062,2.375c-8.808,0-15.281-2.375-15.281-2.375v-4.75
	c0,0,6.757,2.375,15.063,2.375c8.305,0,15.28-2.375,15.28-2.375V178.5z"/>
<path fill="#3D6028" d="M265.942,276.272c0,0-6.255,2.375-15.062,2.375c-8.808,0-15.281-2.375-15.281-2.375v-4.75
	c0,0,6.757,2.375,15.063,2.375c8.305,0,15.28-2.375,15.28-2.375V276.272z"/>
<path fill="#80B628" d="M235.599,116.377l-43.012-16.11l-0.113,57.402l-47.649-16.664c0,44.113-0.001,96.866-0.001,96.039
	c0-1.419,90.776,36.419,90.776,39"/>
<path fill="#3D6028" stroke="#3D6028" stroke-miterlimit="10" d="M264.813,116.669c-2.179,0.669-7.339,2-13.933,2
	c-6.593,0-11.878-1.331-14.119-2h-0.601v158.999h29.219l-0.002-158.999H264.813z"/>
<path fill="#80B628" d="M265.942,220.492c0,0-6.255,2.375-15.062,2.375c-8.808,0-15.281-2.375-15.281-2.375v-4.75
	c0,0,6.757,2.375,15.063,2.375c8.305,0,15.28-2.375,15.28-2.375V220.492z"/>
<path fill="#80B628" d="M265.942,230.242c0,0-6.255,2.375-15.062,2.375c-8.808,0-15.281-2.375-15.281-2.375v-4.75
	c0,0,6.757,2.375,15.063,2.375c8.305,0,15.28-2.375,15.28-2.375V230.242z"/>
<path fill="#80B628" d="M265.942,239.827c0,0-6.255,2.375-15.062,2.375c-8.808,0-15.281-2.375-15.281-2.375v-4.75
	c0,0,6.757,2.375,15.063,2.375c8.305,0,15.28-2.375,15.28-2.375V239.827z"/>
<path fill="#80B628" d="M265.942,141.29c0,0-6.255,2.375-15.062,2.375c-8.808,0-15.281-2.375-15.281-2.375v-4.75
	c0,0,6.757,2.375,15.063,2.375c8.305,0,15.28-2.375,15.28-2.375V141.29z"/>
<path fill="#80B628" d="M265.942,151.04c0,0-6.255,2.375-15.062,2.375c-8.808,0-15.281-2.375-15.281-2.375v-4.75
	c0,0,6.757,2.375,15.063,2.375c8.305,0,15.28-2.375,15.28-2.375V151.04z"/>
<path fill="#80B628" d="M265.942,160.625c0,0-6.255,2.375-15.062,2.375c-8.808,0-15.281-2.375-15.281-2.375v-4.75
	c0,0,6.757,2.375,15.063,2.375c8.305,0,15.28-2.375,15.28-2.375V160.625z"/>
<text transform="matrix(1 0 0 1 67.6841 441)"><tspan x="0" y="0" fill="#48403C" font-family="'EBGaramond'" font-size="87" letter-spacing="6">Z</tspan><tspan x="58.986" y="0" fill="#48403C" font-family="'EBGaramond'" font-size="87">en</tspan></text>
<path fill-rule="evenodd" clip-rule="evenodd" fill="#48403C" d="M278.637,404.412c-1.552-7.367-7.509-14.059-15.908-16.341
	c-5.707-1.551-11.509-1.457-17.224-0.068c-14.994,3.642-26.533,11.959-33.217,26.041c-6.692,14.099-1.596,29.442,11.702,36.54
	c6.506,3.473,13.551,4.572,20.831,4.188c6.887-0.364,13.289-2.389,19.119-6.128c0.789-0.506,1.451-0.998,0.623-1.986
	c-8.943,4.779-17.785,6.508-26.71,4.753c-8.36-1.645-15.068-5.835-18.728-13.881c-2.665-5.856-2.35-11.925-0.956-18.055
	c4.199-18.455,21.816-31.18,40.343-29.077c8.216,0.932,14.004,5.822,15.765,13.447c0.836,3.625,0.682,7.291,0.141,10.958
	c-1.686,11.427-11.203,21.401-22.357,23.382c-5.124,0.911-9.338-0.63-11.524-4.228c-2.174-3.579-2.319-7.489-1.859-11.499
	c0.104-0.915,0.537-1.024,1.396-0.878c3.598,0.614,7.224,0.598,10.783-0.184c4.727-1.039,9.186-2.748,12.243-6.761
	c3.592-4.716,1.632-10.44-4.041-12.144c-2.833-0.852-5.682-0.639-8.511-0.007c-8.402,1.875-19.428,8.874-20.839,21.411
	c-0.833,7.394,3.156,14.162,10.013,16.378c4.298,1.391,8.688,1.6,13.095,0.651c8.792-1.892,22.287-12.929,24.126-18.447
	C279.931,415.008,279.563,408.807,278.637,404.412z M240.823,415.786c1.903-3.802,4.466-7.076,7.933-9.579
	c1.928-1.391,4.059-2.11,6.476-1.662c1.521,0.282,2.298,1.188,2.333,2.73c0.036,1.604-0.521,3.029-1.337,4.376
	c-2.7,4.459-7.639,7.044-13.546,7.091C239.383,418.769,239.349,418.732,240.823,415.786z"/>
<text transform="matrix(1 0 0 1 282.2607 441)" fill="#48403C" font-family="'EBGaramond'" font-size="87">tude</text>
</svg>
