<?xml version="1.0" encoding="utf-8"?>
<!-- Generator: Adobe Illustrator 16.0.0, SVG Export Plug-In . SVG Version: 6.00 Build 0)  -->
<!DOCTYPE svg PUBLIC "-//W3C//DTD SVG 1.1//EN" "http://www.w3.org/Graphics/SVG/1.1/DTD/svg11.dtd">
<svg version="1.1" id="Calque_1" xmlns="http://www.w3.org/2000/svg" xmlns:xlink="http://www.w3.org/1999/xlink" x="0px" y="0px"
	 width="500px" height="100px" viewBox="0 0 500 100" enable-background="new 0 0 500 100" xml:space="preserve">
<text transform="matrix(1 0 0 1 63.6841 74.0654)"><tspan x="0" y="0" fill="#48403C" font-family="'EBGaramond'" font-size="87" letter-spacing="6">Z</tspan><tspan x="58.986" y="0" fill="#48403C" font-family="'EBGaramond'" font-size="87">en</tspan></text>
<path fill-rule="evenodd" clip-rule="evenodd" fill="#48403C" d="M274.637,37.478c-1.552-7.367-7.509-14.059-15.908-16.341
	c-5.707-1.551-11.509-1.457-17.224-0.068c-14.994,3.642-26.533,11.959-33.217,26.041c-6.692,14.099-1.596,29.442,11.702,36.54
	c6.506,3.473,13.551,4.572,20.831,4.188c6.887-0.364,13.289-2.389,19.119-6.128c0.789-0.506,1.451-0.998,0.623-1.986
	c-8.943,4.779-17.785,6.508-26.71,4.753c-8.36-1.645-15.068-5.835-18.728-13.881c-2.665-5.856-2.35-11.925-0.956-18.055
	c4.199-18.455,21.816-31.18,40.343-29.077c8.216,0.932,14.004,5.822,15.765,13.447c0.836,3.625,0.682,7.291,0.141,10.958
	c-1.686,11.427-11.203,21.401-22.357,23.382c-5.124,0.911-9.338-0.63-11.524-4.228c-2.174-3.579-2.319-7.489-1.859-11.499
	c0.104-0.915,0.537-1.024,1.396-0.878c3.598,0.614,7.224,0.598,10.783-0.184c4.727-1.039,9.186-2.748,12.243-6.761
	c3.592-4.716,1.632-10.44-4.041-12.144c-2.833-0.852-5.682-0.639-8.511-0.007c-8.402,1.875-19.428,8.874-20.839,21.411
	c-0.833,7.394,3.156,14.162,10.013,16.378c4.298,1.391,8.688,1.6,13.095,0.651c8.792-1.892,22.287-12.929,24.126-18.447
	C275.931,48.073,275.563,41.872,274.637,37.478z M236.823,48.852c1.903-3.802,4.466-7.076,7.933-9.579
	c1.928-1.391,4.059-2.11,6.476-1.662c1.521,0.282,2.298,1.188,2.333,2.73c0.036,1.604-0.521,3.029-1.337,4.376
	c-2.7,4.459-7.639,7.044-13.546,7.091C235.383,51.834,235.349,51.798,236.823,48.852z"/>
<text transform="matrix(1 0 0 1 278.2607 74.0654)" fill="#48403C" font-family="'EBGaramond'" font-size="87">tude</text>
</svg>
